<?xml version="1.0"?>
<svg version="1.1" xmlns="http://www.w3.org/2000/svg" xmlns:xlink="http://www.w3.org/1999/xlink" width="640" height="480">
    <desc iVinci="yes" version="4.5" gridStep="20" showGrid="yes" snapToGrid="no" codePlatform="0"/>
    <g id="Layer1" opacity="1">
        <g id="Shape1">
            <desc shapeID="1" type="0" basicInfo-basicType="4" basicInfo-roundedRectRadius="12" basicInfo-polygonSides="6" basicInfo-starPoints="5" bounding="rect(-142.5,-143,284.999,286.001)" text="" font-familyName="Helvetica" font-pixelSize="20" font-bold="0" font-underline="0" font-alignment="1" strokeStyle="0" markerStart="0" markerEnd="0" shadowEnabled="0" shadowOffsetX="0" shadowOffsetY="2" shadowBlur="4" shadowOpacity="160" blurEnabled="0" blurRadius="4" transform="matrix(1.2386,0,0,1.21678,320.001,239.999)" pers-center="0,0" pers-size="0,0" pers-start="0,0" pers-end="0,0" locked="0" mesh="" flag=""/>
            <path id="shapePath1" d="M143.5,240 C143.5,143.902 222.522,66 320,66 C417.478,66 496.5,143.902 496.5,240 C496.5,336.098 417.478,414 320,414 C222.522,414 143.5,336.098 143.5,240 Z" style="stroke:none;fill-rule:evenodd;fill:#00a8a8;fill-opacity:1;"/>
        </g>
    </g>
    <g id="Layer2" opacity="1">
        <g id="Shape2">
            <desc shapeID="2" type="0" basicInfo-basicType="4" basicInfo-roundedRectRadius="12" basicInfo-polygonSides="6" basicInfo-starPoints="5" bounding="rect(-142.5,-143,285,286)" text="" font-familyName="Helvetica" font-pixelSize="20" font-bold="0" font-underline="0" font-alignment="1" strokeStyle="0" markerStart="0" markerEnd="0" shadowEnabled="0" shadowOffsetX="0" shadowOffsetY="2" shadowBlur="4" shadowOpacity="160" blurEnabled="0" blurRadius="4" transform="matrix(1.19649,0,0,1.18881,320,240)" pers-center="0,0" pers-size="0,0" pers-start="0,0" pers-end="0,0" locked="0" mesh="" flag=""/>
            <path id="shapePath2" d="M149.5,240 C149.5,146.112 225.835,70 320,70 C414.165,70 490.5,146.112 490.5,240 C490.5,333.888 414.164,410 320,410 C225.835,410 149.5,333.888 149.5,240 Z" style="stroke:none;fill-rule:evenodd;fill:#ffffff;fill-opacity:1;"/>
        </g>
    </g>
    <g id="Layer3" opacity="1">
        <g id="Shape3">
            <desc shapeID="3" type="0" basicInfo-basicType="2" basicInfo-roundedRectRadius="12" basicInfo-polygonSides="6" basicInfo-starPoints="5" bounding="rect(-56.3875,-89.8262,112.775,179.653)" text="" font-familyName="Helvetica" font-pixelSize="20" font-bold="0" font-underline="0" font-alignment="1" strokeStyle="0" markerStart="0" markerEnd="0" shadowEnabled="0" shadowOffsetX="0" shadowOffsetY="2" shadowBlur="4" shadowOpacity="160" blurEnabled="0" blurRadius="4" transform="matrix(1,0,0,0.930657,374.3,237.078)" pers-center="0,0" pers-size="0,0" pers-start="0,0" pers-end="0,0" locked="0" mesh="" flag=""/>
            <path id="shapePath3" d="M317.913,164.648 C317.913,158.481 323.286,153.481 329.913,153.481 L418.688,153.481 C425.316,153.481 430.688,158.481 430.688,164.648 L430.688,309.508 C430.688,315.676 425.316,320.676 418.688,320.676 L329.913,320.676 C323.286,320.676 317.913,315.676 317.913,309.508 L317.913,164.648 Z" style="stroke:none;fill-rule:evenodd;fill:#ffffff;fill-opacity:1;"/>
        </g>
        <g id="Shape4">
            <desc shapeID="4" type="2" basicInfo-basicType="0" basicInfo-roundedRectRadius="12" basicInfo-polygonSides="6" basicInfo-starPoints="5" bounding="rect(-119.004,-146.214,238.008,292.428)" text="C" font-familyName="Marlett" font-pixelSize="250" font-bold="0" font-underline="0" font-alignment="1" strokeStyle="0" markerStart="0" markerEnd="0" shadowEnabled="0" shadowOffsetX="0" shadowOffsetY="2" shadowBlur="4" shadowOpacity="160" blurEnabled="0" blurRadius="4" transform="matrix(1,0,0,1,309.793,233.607)" pers-center="0,0" pers-size="0,0" pers-start="0,0" pers-end="0,0" locked="0" mesh="" flag=""/>
            <path id="shapePath4" d="M388.715,320.889 C371.218,328.702 350.344,332.608 326.093,332.608 C296.47,332.608 273.399,324.267 256.879,307.584 C240.359,290.901 232.099,267.626 232.099,237.759 C232.099,207.323 240.42,183.906 257.062,167.508 C273.704,151.11 297.447,142.911 328.29,142.911 C347.984,142.911 367.556,145.23 387.006,149.869 L387.006,179.288 C364.952,171.557 346.479,167.691 331.586,167.691 C312.543,167.691 297.854,173.733 287.519,185.818 C277.183,197.903 272.016,215.054 272.016,237.271 C272.016,259.081 277.57,276.089 288.678,288.296 C299.787,300.503 315.229,306.607 335.004,306.607 C352.745,306.607 370.648,302.131 388.715,293.179 L388.715,320.889 Z" style="stroke:none;fill-rule:nonzero;fill:#00a8a8;fill-opacity:1;"/>
        </g>
        <g id="Shape5">
            <desc shapeID="5" type="0" basicInfo-basicType="2" basicInfo-roundedRectRadius="12" basicInfo-polygonSides="6" basicInfo-starPoints="5" bounding="rect(-9.3305,-13.252,18.661,26.504)" text="" font-familyName="Marlett" font-pixelSize="250" font-bold="0" font-underline="0" font-alignment="1" strokeStyle="0" markerStart="0" markerEnd="0" shadowEnabled="0" shadowOffsetX="0" shadowOffsetY="2" shadowBlur="4" shadowOpacity="160" blurEnabled="0" blurRadius="4" transform="matrix(1,0,0,1,348.566,139.608)" pers-center="0,0" pers-size="0,0" pers-start="0,0" pers-end="0,0" locked="0" mesh="" flag=""/>
            <path id="shapePath5" d="M339.236,138.356 C339.236,131.729 343.414,126.356 348.567,126.356 C353.72,126.356 357.897,131.729 357.897,138.356 L357.897,140.86 C357.897,147.487 353.72,152.86 348.567,152.86 C343.414,152.86 339.236,147.487 339.236,140.86 L339.236,138.356 Z" style="stroke:none;fill-rule:evenodd;fill:#00a8a8;fill-opacity:1;"/>
        </g>
        <g id="Shape6">
            <desc shapeID="6" type="0" basicInfo-basicType="1" basicInfo-roundedRectRadius="12" basicInfo-polygonSides="6" basicInfo-starPoints="5" bounding="rect(-9.46574,-9.33048,18.9315,18.661)" text="" font-familyName="Marlett" font-pixelSize="250" font-bold="0" font-underline="0" font-alignment="1" strokeStyle="0" markerStart="0" markerEnd="0" shadowEnabled="0" shadowOffsetX="0" shadowOffsetY="2" shadowBlur="4" shadowOpacity="160" blurEnabled="0" blurRadius="4" transform="matrix(0.985714,0,0,1,348.566,150.29)" pers-center="0,0" pers-size="0,0" pers-start="0,0" pers-end="0,0" locked="0" mesh="" flag=""/>
            <path id="shapePath6" d="M339.236,140.96 L357.897,140.96 L357.897,159.621 L339.236,159.621 L339.236,140.96 Z" style="stroke:none;fill-rule:evenodd;fill:#00a8a8;fill-opacity:1;"/>
        </g>
        <g id="Shape7">
            <desc shapeID="7" type="0" basicInfo-basicType="2" basicInfo-roundedRectRadius="12" basicInfo-polygonSides="6" basicInfo-starPoints="5" bounding="rect(-9.33039,-13.2523,18.6609,26.5044)" text="" font-familyName="Marlett" font-pixelSize="250" font-bold="0" font-underline="0" font-alignment="1" strokeStyle="0" markerStart="0" markerEnd="0" shadowEnabled="0" shadowOffsetX="0" shadowOffsetY="2" shadowBlur="4" shadowOpacity="160" blurEnabled="0" blurRadius="4" transform="matrix(-1.00087,-0.0183411,0.0183221,-0.999832,308.077,340.223)" pers-center="0,0" pers-size="0,0" pers-start="0,0" pers-end="0,0" locked="0" mesh="" flag=""/>
            <path id="shapePath7" d="M317.392,341.646 C317.271,348.272 312.991,353.567 307.834,353.473 C302.676,353.378 298.594,347.93 298.715,341.304 L298.761,338.8 C298.882,332.174 303.162,326.879 308.319,326.973 C313.477,327.068 317.559,332.516 317.438,339.142 L317.392,341.646 Z" style="stroke:none;fill-rule:evenodd;fill:#00a8a8;fill-opacity:1;"/>
        </g>
        <g id="Shape8">
            <desc shapeID="8" type="0" basicInfo-basicType="1" basicInfo-roundedRectRadius="12" basicInfo-polygonSides="6" basicInfo-starPoints="5" bounding="rect(-9.46584,-9.33057,18.9317,18.6611)" text="" font-familyName="Marlett" font-pixelSize="250" font-bold="0" font-underline="0" font-alignment="1" strokeStyle="0" markerStart="0" markerEnd="0" shadowEnabled="0" shadowOffsetX="0" shadowOffsetY="2" shadowBlur="4" shadowOpacity="160" blurEnabled="0" blurRadius="4" transform="matrix(-0.985549,-0.0180603,0.0183221,-0.999832,308.282,329.542)" pers-center="0,0" pers-size="0,0" pers-start="0,0" pers-end="0,0" locked="0" mesh="" flag=""/>
            <path id="shapePath8" d="M317.44,339.042 L298.782,338.7 L299.124,320.043 L317.782,320.384 L317.44,339.042 Z" style="stroke:none;fill-rule:evenodd;fill:#00a8a8;fill-opacity:1;"/>
        </g>
        <g id="Shape9">
            <desc shapeID="9" type="0" basicInfo-basicType="2" basicInfo-roundedRectRadius="12" basicInfo-polygonSides="6" basicInfo-starPoints="5" bounding="rect(-9.33053,-13.2523,18.6611,26.5044)" text="" font-familyName="Marlett" font-pixelSize="250" font-bold="0" font-underline="0" font-alignment="1" strokeStyle="0" markerStart="0" markerEnd="0" shadowEnabled="0" shadowOffsetX="0" shadowOffsetY="2" shadowBlur="4" shadowOpacity="160" blurEnabled="0" blurRadius="4" transform="matrix(-0.999832,-0.0183221,0.0183221,-0.999832,348.202,340.393)" pers-center="0,0" pers-size="0,0" pers-start="0,0" pers-end="0,0" locked="0" mesh="" flag=""/>
            <path id="shapePath9" d="M357.508,341.815 C357.386,348.442 353.111,353.737 347.959,353.643 C342.807,353.548 338.728,348.1 338.85,341.474 L338.896,338.97 C339.017,332.344 343.292,327.049 348.444,327.143 C353.597,327.238 357.675,332.686 357.553,339.312 L357.508,341.815 Z" style="stroke:none;fill-rule:evenodd;fill:#00a8a8;fill-opacity:1;"/>
        </g>
        <g id="Shape10">
            <desc shapeID="10" type="0" basicInfo-basicType="1" basicInfo-roundedRectRadius="12" basicInfo-polygonSides="6" basicInfo-starPoints="5" bounding="rect(-9.46532,-9.33059,18.9307,18.6613)" text="" font-familyName="Marlett" font-pixelSize="250" font-bold="0" font-underline="0" font-alignment="1" strokeStyle="0" markerStart="0" markerEnd="0" shadowEnabled="0" shadowOffsetX="0" shadowOffsetY="2" shadowBlur="4" shadowOpacity="160" blurEnabled="0" blurRadius="4" transform="matrix(-0.985549,-0.0180603,0.0183221,-0.999832,348.398,329.712)" pers-center="0,0" pers-size="0,0" pers-start="0,0" pers-end="0,0" locked="0" mesh="" flag=""/>
            <path id="shapePath10" d="M357.555,339.212 L338.898,338.87 L339.24,320.212 L357.897,320.554 L357.555,339.212 Z" style="stroke:none;fill-rule:evenodd;fill:#00a8a8;fill-opacity:1;"/>
        </g>
        <g id="Shape11">
            <desc shapeID="11" type="0" basicInfo-basicType="4" basicInfo-roundedRectRadius="12" basicInfo-polygonSides="6" basicInfo-starPoints="5" bounding="rect(-11.8665,-14.6055,23.733,29.211)" text="" font-familyName="Marlett" font-pixelSize="250" font-bold="0" font-underline="0" font-alignment="1" strokeStyle="0" markerStart="0" markerEnd="0" shadowEnabled="0" shadowOffsetX="0" shadowOffsetY="2" shadowBlur="4" shadowOpacity="160" blurEnabled="0" blurRadius="4" transform="matrix(1,0,0,1,386.727,164.35)" pers-center="0,0" pers-size="0,0" pers-start="0,0" pers-end="0,0" locked="0" mesh="" flag=""/>
            <path id="shapePath11" d="M374.86,164.35 C374.86,156.284 380.173,149.745 386.726,149.745 C393.28,149.745 398.593,156.284 398.593,164.35 C398.593,172.417 393.28,178.956 386.726,178.956 C380.173,178.956 374.86,172.417 374.86,164.35 Z" style="stroke:none;fill-rule:evenodd;fill:#00a8a8;fill-opacity:1;"/>
        </g>
        <g id="Shape12">
            <desc shapeID="12" type="0" basicInfo-basicType="1" basicInfo-roundedRectRadius="12" basicInfo-polygonSides="6" basicInfo-starPoints="5" bounding="rect(-9.46574,-9.32998,18.9315,18.66)" text="" font-familyName="Marlett" font-pixelSize="250" font-bold="0" font-underline="0" font-alignment="1" strokeStyle="0" markerStart="0" markerEnd="0" shadowEnabled="0" shadowOffsetX="0" shadowOffsetY="2" shadowBlur="4" shadowOpacity="160" blurEnabled="0" blurRadius="4" transform="matrix(0.985714,0,0,1,308.452,152.86)" pers-center="0,0" pers-size="0,0" pers-start="0,0" pers-end="0,0" locked="0" mesh="" flag=""/>
            <path id="shapePath12" d="M299.121,143.53 L317.782,143.53 L317.782,162.19 L299.121,162.19 L299.121,143.53 Z" style="stroke:none;fill-rule:evenodd;fill:#00a8a8;fill-opacity:1;"/>
        </g>
        <g id="Shape13">
            <desc shapeID="13" type="0" basicInfo-basicType="2" basicInfo-roundedRectRadius="12" basicInfo-polygonSides="6" basicInfo-starPoints="5" bounding="rect(-9.32998,-13.252,18.66,26.504)" text="" font-familyName="Marlett" font-pixelSize="250" font-bold="0" font-underline="0" font-alignment="1" strokeStyle="0" markerStart="0" markerEnd="0" shadowEnabled="0" shadowOffsetX="0" shadowOffsetY="2" shadowBlur="4" shadowOpacity="160" blurEnabled="0" blurRadius="4" transform="matrix(1,0,0,1,308.062,139.608)" pers-center="0,0" pers-size="0,0" pers-start="0,0" pers-end="0,0" locked="0" mesh="" flag=""/>
            <path id="shapePath13" d="M298.732,138.356 C298.732,131.729 302.909,126.356 308.062,126.356 C313.215,126.356 317.392,131.729 317.392,138.356 L317.392,140.86 C317.392,147.487 313.215,152.86 308.062,152.86 C302.909,152.86 298.732,147.487 298.732,140.86 L298.732,138.356 Z" style="stroke:none;fill-rule:evenodd;fill:#00a8a8;fill-opacity:1;"/>
        </g>
        <g id="Shape14">
            <desc shapeID="14" type="0" basicInfo-basicType="1" basicInfo-roundedRectRadius="12" basicInfo-polygonSides="6" basicInfo-starPoints="5" bounding="rect(-6.4317,-3.83719,12.8633,7.67436)" text="" font-familyName="Marlett" font-pixelSize="250" font-bold="0" font-underline="0" font-alignment="1" strokeStyle="0" markerStart="0" markerEnd="0" shadowEnabled="0" shadowOffsetX="0" shadowOffsetY="2" shadowBlur="4" shadowOpacity="160" blurEnabled="0" blurRadius="4" transform="matrix(0.96399,0.265939,-0.265939,0.96399,382.04,181.425)" pers-center="0,0" pers-size="0,0" pers-start="0,0" pers-end="0,0" locked="0" mesh="" flag=""/>
            <path id="shapePath14" d="M376.86,176.016 L389.26,179.437 L387.219,186.834 L374.819,183.414 L376.86,176.016 Z" style="stroke:none;fill-rule:evenodd;fill:#ffffff;fill-opacity:1;"/>
        </g>
        <g id="Shape15">
            <desc shapeID="15" type="0" basicInfo-basicType="1" basicInfo-roundedRectRadius="12" basicInfo-polygonSides="6" basicInfo-starPoints="5" bounding="rect(-6.18758,-3.12505,12.3752,6.2501)" text="" font-familyName="Marlett" font-pixelSize="250" font-bold="0" font-underline="0" font-alignment="1" strokeStyle="0" markerStart="0" markerEnd="0" shadowEnabled="0" shadowOffsetX="0" shadowOffsetY="2" shadowBlur="4" shadowOpacity="160" blurEnabled="0" blurRadius="4" transform="matrix(0.972932,0.231093,-0.231093,0.972932,390.079,147.37)" pers-center="0,0" pers-size="0,0" pers-start="0,0" pers-end="0,0" locked="0" mesh="" flag=""/>
            <path id="shapePath15" d="M384.781,142.9 L396.821,145.76 L395.377,151.84 L383.337,148.981 L384.781,142.9 Z" style="stroke:none;fill-rule:evenodd;fill:#ffffff;fill-opacity:1;"/>
        </g>
        <g id="Shape16">
            <desc shapeID="16" type="0" basicInfo-basicType="4" basicInfo-roundedRectRadius="12" basicInfo-polygonSides="6" basicInfo-starPoints="5" bounding="rect(-11.8666,-14.6053,23.7333,29.2105)" text="" font-familyName="Marlett" font-pixelSize="250" font-bold="0" font-underline="0" font-alignment="1" strokeStyle="0" markerStart="0" markerEnd="0" shadowEnabled="0" shadowOffsetX="0" shadowOffsetY="2" shadowBlur="4" shadowOpacity="160" blurEnabled="0" blurRadius="4" transform="matrix(-0.999483,0.0321426,-0.0315553,-0.981224,386.739,307.751)" pers-center="0,0" pers-size="0,0" pers-start="0,0" pers-end="0,0" locked="0" mesh="" flag=""/>
            <path id="shapePath16" d="M398.599,307.369 C398.853,315.284 393.75,321.871 387.199,322.082 C380.649,322.292 375.132,316.047 374.878,308.132 C374.623,300.217 379.727,293.63 386.277,293.42 C392.828,293.209 398.344,299.454 398.599,307.369 Z" style="stroke:none;fill-rule:evenodd;fill:#00a8a8;fill-opacity:1;"/>
        </g>
        <g id="Shape17">
            <desc shapeID="17" type="0" basicInfo-basicType="1" basicInfo-roundedRectRadius="12" basicInfo-polygonSides="6" basicInfo-starPoints="5" bounding="rect(-6.43141,-3.83728,12.8628,7.67455)" text="" font-familyName="Marlett" font-pixelSize="250" font-bold="0" font-underline="0" font-alignment="1" strokeStyle="0" markerStart="0" markerEnd="0" shadowEnabled="0" shadowOffsetX="0" shadowOffsetY="2" shadowBlur="4" shadowOpacity="160" blurEnabled="0" blurRadius="4" transform="matrix(-0.97204,-0.234817,0.234817,-0.97204,371.411,215.958)" pers-center="0,0" pers-size="0,0" pers-start="0,0" pers-end="0,0" locked="0" mesh="" flag=""/>
            <path id="shapePath17" d="M376.762,221.198 L364.259,218.177 L366.061,210.718 L378.564,213.738 L376.762,221.198 Z" style="stroke:none;fill-rule:evenodd;fill:#ffffff;fill-opacity:1;"/>
        </g>
        <g id="Shape18">
            <desc shapeID="18" type="0" basicInfo-basicType="1" basicInfo-roundedRectRadius="12" basicInfo-polygonSides="6" basicInfo-starPoints="5" bounding="rect(-6.18762,-3.12511,12.3752,6.25021)" text="" font-familyName="Marlett" font-pixelSize="250" font-bold="0" font-underline="0" font-alignment="1" strokeStyle="0" markerStart="0" markerEnd="0" shadowEnabled="0" shadowOffsetX="0" shadowOffsetY="2" shadowBlur="4" shadowOpacity="160" blurEnabled="0" blurRadius="4" transform="matrix(-0.979857,-0.199701,0.199701,-0.979857,364.471,250.253)" pers-center="0,0" pers-size="0,0" pers-start="0,0" pers-end="0,0" locked="0" mesh="" flag=""/>
            <path id="shapePath18" d="M369.91,254.551 L357.784,252.08 L359.033,245.956 L371.158,248.427 L369.91,254.551 Z" style="stroke:none;fill-rule:evenodd;fill:#ffffff;fill-opacity:1;"/>
        </g>
        <g id="Shape19">
            <desc shapeID="19" type="0" basicInfo-basicType="1" basicInfo-roundedRectRadius="12" basicInfo-polygonSides="6" basicInfo-starPoints="5" bounding="rect(-10.3439,-2.87489,20.6877,5.74979)" text="" font-familyName="Marlett" font-pixelSize="250" font-bold="0" font-underline="0" font-alignment="1" strokeStyle="0" markerStart="0" markerEnd="0" shadowEnabled="0" shadowOffsetX="0" shadowOffsetY="2" shadowBlur="4" shadowOpacity="160" blurEnabled="0" blurRadius="4" transform="matrix(0.944949,-0.327216,0.327216,0.944949,381.068,293.931)" pers-center="0,0" pers-size="0,0" pers-start="0,0" pers-end="0,0" locked="0" mesh="" flag=""/>
            <path id="shapePath19" d="M370.353,294.599 L389.901,287.83 L391.783,293.263 L372.234,300.032 L370.353,294.599 Z" style="stroke:none;fill-rule:evenodd;fill:#ffffff;fill-opacity:1;"/>
        </g>
        <g id="Shape20">
            <desc shapeID="20" type="0" basicInfo-basicType="0" basicInfo-roundedRectRadius="12" basicInfo-polygonSides="6" basicInfo-starPoints="5" bounding="rect(-9.29954,-33.4349,18.599,66.87)" text="" font-familyName="Marlett" font-pixelSize="250" font-bold="0" font-underline="0" font-alignment="1" strokeStyle="0" markerStart="0" markerEnd="0" shadowEnabled="0" shadowOffsetX="0" shadowOffsetY="2" shadowBlur="4" shadowOpacity="160" blurEnabled="0" blurRadius="4" transform="matrix(1,0,0,1,347.232,290.814)" pers-center="0,0" pers-size="0,0" pers-start="0,0" pers-end="0,0" locked="0" mesh="" flag=""/>
            <path id="shapePath20" d="M356.531,257.379 L337.932,324.249 " style="stroke:none;fill-rule:evenodd;fill:#ffffff;fill-opacity:1;"/>
        </g>
        <g id="Shape21">
            <desc shapeID="21" type="0" basicInfo-basicType="0" basicInfo-roundedRectRadius="12" basicInfo-polygonSides="6" basicInfo-starPoints="5" bounding="rect(-0.000223715,-15.3993,0.000447591,30.7987)" text="" font-familyName="Marlett" font-pixelSize="250" font-bold="0" font-underline="0" font-alignment="1" strokeStyle="0" markerStart="0" markerEnd="0" shadowEnabled="0" shadowOffsetX="0" shadowOffsetY="2" shadowBlur="4" shadowOpacity="160" blurEnabled="0" blurRadius="4" transform="matrix(1,0,0,1,349.224,281.413)" pers-center="0,0" pers-size="0,0" pers-start="0,0" pers-end="0,0" locked="0" mesh="" flag=""/>
            <path id="shapePath21" d="M349.224,266.014 C349.224,287.453 349.225,316.884 349.224,277.307 " style="stroke:none;fill-rule:evenodd;fill:#ffffff;fill-opacity:1;"/>
        </g>
        <g id="Shape22">
            <desc shapeID="22" type="0" basicInfo-basicType="1" basicInfo-roundedRectRadius="12" basicInfo-polygonSides="6" basicInfo-starPoints="5" bounding="rect(-10.3442,-2.87524,20.6882,5.75049)" text="" font-familyName="Marlett" font-pixelSize="250" font-bold="0" font-underline="0" font-alignment="1" strokeStyle="0" markerStart="0" markerEnd="0" shadowEnabled="0" shadowOffsetX="0" shadowOffsetY="2" shadowBlur="4" shadowOpacity="160" blurEnabled="0" blurRadius="4" transform="matrix(0.935187,-0.354155,0.354155,0.935187,396.545,321.108)" pers-center="0,0" pers-size="0,0" pers-start="0,0" pers-end="0,0" locked="0" mesh="" flag=""/>
            <path id="shapePath22" d="M385.853,322.082 L405.2,314.756 L407.236,320.133 L387.889,327.46 L385.853,322.082 Z" style="stroke:none;fill-rule:evenodd;fill:#ffffff;fill-opacity:1;"/>
        </g>
    </g>
</svg>
